<svg width="191" height="61" viewBox="0 0 191 61" fill="none" xmlns="http://www.w3.org/2000/svg">
<g filter="url(#filter0_d_49_85)">
<path d="M76.9258 22H74.7695V6.78906H68.0898V22H65.9453V4.9375H76.9258V22ZM89.5258 14.1133H83.4906V20.1602H90.5219V22H81.3461V4.9375H90.4047V6.78906H83.4906V12.2734H89.5258V14.1133ZM96.0203 15.3203V22H93.8758V4.9375H99.3133C100.899 4.9375 102.145 5.41406 103.052 6.36719C103.958 7.3125 104.411 8.57422 104.411 10.1523C104.411 11.793 103.977 13.0586 103.11 13.9492C102.251 14.832 101.036 15.2891 99.4656 15.3203H96.0203ZM96.0203 13.4805H99.3133C100.266 13.4805 100.997 13.1953 101.505 12.625C102.013 12.0547 102.266 11.2383 102.266 10.1758C102.266 9.15234 102.005 8.33203 101.481 7.71484C100.958 7.09766 100.239 6.78906 99.325 6.78906H96.0203V13.4805ZM115.968 14.1133H109.933V20.1602H116.964V22H107.788V4.9375H116.847V6.78906H109.933V12.2734H115.968V14.1133ZM131.287 4.9375V22H129.13V6.78906H124.361L124.103 13.9609C124.009 16.0547 123.81 17.6523 123.505 18.7539C123.201 19.8555 122.755 20.668 122.17 21.1914C121.584 21.7148 120.814 21.9844 119.861 22H119.205V20.1602L119.603 20.1367C120.173 20.0898 120.619 19.8711 120.939 19.4805C121.259 19.082 121.502 18.4531 121.666 17.5938C121.83 16.7344 121.947 15.4219 122.017 13.6562L122.298 4.9375H131.287ZM143.887 14.1133H137.852V20.1602H144.883V22H135.707V4.9375H144.766V6.78906H137.852V12.2734H143.887V14.1133ZM158.444 6.78906H153.955V22H151.811V6.78906H147.334V4.9375H158.444V6.78906ZM176.097 4.9375H178.241V22H176.097V8.85156L169.452 22H167.296V4.9375H169.452V18.0859L176.097 4.9375ZM76.5391 44.5859C76.4453 46.4141 75.9297 47.8125 74.9922 48.7812C74.0625 49.75 72.7461 50.2344 71.043 50.2344C69.332 50.2344 67.9727 49.5859 66.9648 48.2891C65.957 46.9844 65.4531 45.2188 65.4531 42.9922V39.8984C65.4531 37.6797 65.9688 35.9258 67 34.6367C68.0391 33.3477 69.4531 32.7031 71.2422 32.7031C72.8906 32.7031 74.1641 33.1992 75.0625 34.1914C75.9688 35.1758 76.4609 36.5859 76.5391 38.4219H74.3711C74.2773 37.0312 73.9844 36.0391 73.4922 35.4453C73 34.8516 72.25 34.5547 71.2422 34.5547C70.0781 34.5547 69.1836 35.0117 68.5586 35.9258C67.9336 36.832 67.6211 38.1641 67.6211 39.9219V43.0508C67.6211 44.7773 67.9102 46.1016 68.4883 47.0234C69.0742 47.9453 69.9258 48.4062 71.043 48.4062C72.1602 48.4062 72.9648 48.1289 73.457 47.5742C73.9492 47.0195 74.2539 46.0234 74.3711 44.5859H76.5391ZM89.6781 34.7891H85.1898V50H83.0453V34.7891H78.5688V32.9375H89.6781V34.7891ZM94.9422 43.3203V50H92.7977V32.9375H98.2352C99.8211 32.9375 101.067 33.4141 101.973 34.3672C102.88 35.3125 103.333 36.5742 103.333 38.1523C103.333 39.793 102.899 41.0586 102.032 41.9492C101.173 42.832 99.9578 43.2891 98.3875 43.3203H94.9422ZM94.9422 41.4805H98.2352C99.1883 41.4805 99.9188 41.1953 100.427 40.625C100.934 40.0547 101.188 39.2383 101.188 38.1758C101.188 37.1523 100.927 36.332 100.403 35.7148C99.8797 35.0977 99.1609 34.7891 98.2469 34.7891H94.9422V41.4805ZM113.05 45.5469H107.284L105.96 50H103.757L109.253 32.9375H111.093L116.601 50H114.398L113.05 45.5469ZM107.847 43.6953H112.499L110.167 35.9375L107.847 43.6953ZM124.314 39.4766L127.525 32.9375H130.045L125.603 41.3984L130.138 50H127.595L124.314 43.3438L121.021 50H118.478L123.037 41.3984L118.572 32.9375H121.08L124.314 39.4766ZM144.133 42.9688C144.133 45.2969 143.637 47.0898 142.645 48.3477C141.652 49.6055 140.242 50.2344 138.414 50.2344C136.656 50.2344 135.266 49.625 134.242 48.4062C133.227 47.1797 132.699 45.4492 132.66 43.2148V40.0039C132.66 37.7227 133.164 35.9375 134.172 34.6484C135.18 33.3516 136.586 32.7031 138.391 32.7031C140.188 32.7031 141.586 33.3242 142.586 34.5664C143.594 35.8008 144.109 37.5664 144.133 39.8633V42.9688ZM141.988 39.9805C141.988 38.1758 141.691 36.8359 141.098 35.9609C140.512 35.0781 139.609 34.6367 138.391 34.6367C137.211 34.6367 136.316 35.082 135.707 35.9727C135.105 36.8633 134.801 38.1758 134.793 39.9102V42.9688C134.793 44.7109 135.094 46.0391 135.695 46.9531C136.305 47.8672 137.211 48.3242 138.414 48.3242C139.617 48.3242 140.508 47.9023 141.086 47.0586C141.664 46.2148 141.965 44.9219 141.988 43.1797V39.9805ZM148.049 50V32.9375H152.912C154.467 32.9375 155.635 33.3164 156.416 34.0742C157.205 34.832 157.6 35.9688 157.6 37.4844C157.6 38.2812 157.401 38.9844 157.002 39.5938C156.604 40.2031 156.065 40.6758 155.385 41.0117C156.166 41.2461 156.784 41.7266 157.237 42.4531C157.698 43.1797 157.928 44.0547 157.928 45.0781C157.928 46.6094 157.506 47.8125 156.662 48.6875C155.827 49.5625 154.631 50 153.077 50H148.049ZM150.194 42.0195V48.1602H153.123C153.936 48.1602 154.58 47.8945 155.057 47.3633C155.534 46.8242 155.772 46.0703 155.772 45.1016C155.772 43.0469 154.905 42.0195 153.17 42.0195H150.194ZM150.194 40.2148H152.948C153.69 40.2148 154.287 39.9648 154.741 39.4648C155.202 38.9648 155.432 38.3008 155.432 37.4727C155.432 36.5352 155.225 35.8555 154.811 35.4336C154.397 35.0039 153.764 34.7891 152.912 34.7891H150.194V40.2148ZM165.618 42.3359H164.001V50H161.856V32.9375H164.001V40.4609H165.313L170.118 32.9375H172.79L167.376 41.1875L173.188 50H170.563L165.618 42.3359ZM180.738 42.5L183.784 32.9375H186.269L181.359 47.1523C180.999 48.0664 180.675 48.7109 180.386 49.0859C180.105 49.4531 179.765 49.7383 179.366 49.9414C178.968 50.1445 178.468 50.2461 177.866 50.2461C177.327 50.2461 176.988 50.2109 176.847 50.1406L176.894 48.3594L177.82 48.4062C178.445 48.4062 178.894 48.0273 179.167 47.2695L179.73 45.5938L175.042 32.9375H177.433L180.738 42.5Z" fill="#242121"/>
<path d="M52.4374 33.4593C49.7268 34.1162 47.5047 35.3802 45.6311 37.1837C44.2576 34.844 42.3177 32.6006 40.5914 30.5809C39.4944 29.2971 38.1144 27.4034 36.2937 27.0383C36.5038 26.8843 36.6706 26.6554 36.7542 26.341C36.9956 25.4391 37.398 24.6092 38.0096 23.8783C38.3091 23.5205 38.6849 23.2144 39.049 22.9198C39.2158 22.7849 39.4216 22.7119 39.5775 22.5627C39.7809 22.3681 39.8816 22.0719 40.0179 21.8287C41.8753 19.8683 43.4758 17.1689 44.8906 15.189C46.8077 12.5062 49.464 8.37464 47.3043 5.17429C44.9598 1.69982 39.9137 3.02912 36.9723 4.7557C32.4803 7.39247 29.2937 11.7257 26.2679 15.7798C26.2231 15.6143 26.1432 15.4499 26.017 15.2937C22.7372 11.2336 10.8372 0.29283 5.48288 6.97778C0.219483 13.5487 10.1361 22.8111 16.9775 25.1946C12.0606 27.9834 8.53479 33.7264 6.91257 38.7682C6.05122 41.4452 5.64417 47.9603 9.303 49.1737C12.6069 50.2696 15.9475 46.4912 17.8603 44.4899C20.9442 41.2631 23.5342 37.6449 26.2882 34.1642C26.3358 34.357 26.411 34.5675 26.5508 34.8234C27.4372 36.4463 28.8603 37.5976 30.3557 38.6973C32.3087 40.1336 34.5137 41.2688 36.6975 42.3448C37.9248 42.9494 39.3847 43.8253 40.8323 44.0932C38.7446 46.3283 37.5832 48.634 38.015 51.8177C38.1407 52.7451 38.9741 53.2756 39.8993 52.8524C43.4932 51.2084 46.4221 47.9389 48.7892 44.9678C51.156 41.9969 53.7902 38.4663 53.9985 34.5971C54.0406 33.8127 53.1814 33.2787 52.4374 33.4593ZM46.2453 44.1961C44.6095 46.17 42.6878 48.2687 40.4486 49.7523C40.5857 47.7758 41.3075 45.979 42.3141 44.0882C42.3234 44.0711 42.3234 44.0537 42.3304 44.0365C42.8675 43.7406 43.015 43.0354 42.5563 42.5202C41.7341 41.5954 40.4429 41.1997 39.3192 40.6954C37.5485 39.8998 35.8233 39.0176 34.1406 38.0638C32.4486 37.1045 30.8562 35.996 29.4621 34.666C29.0586 34.2812 27.3959 32.6871 27.3228 32.1368C27.2903 31.8917 26.9552 31.8005 26.8349 32.0159C26.2999 31.5054 25.2433 31.3606 24.6345 32.117C20.768 36.9205 17.0823 43.5049 11.4178 46.5624C8.10819 48.3487 9.45017 39.9416 9.87487 38.6973C11.5115 33.9002 15.0123 29.4971 18.5464 25.8403C18.6149 25.7693 18.6635 25.6942 18.6955 25.6178C19.5417 25.569 20.0867 24.3852 19.1683 23.989C14.5265 21.987 3.97959 14.4778 7.3704 8.78985C10.648 3.29129 21.9449 14.6659 24.2362 16.9982C24.763 17.5342 25.3832 17.4646 25.8084 17.1208C26.0542 17.4352 26.5799 17.5864 26.9191 17.2455C29.7926 14.3586 32.6316 11.4791 35.7557 8.8335C37.4407 7.40676 39.3144 6.15931 41.512 5.61366C43.7004 5.07036 45.6922 6.47656 45.2919 8.58588C44.695 11.7317 41.9923 14.6901 40.0345 17.1629C39.1495 18.2807 37.2577 19.9457 36.9261 21.5637C36.7368 21.6848 36.5495 21.8136 36.361 21.9579C35.18 22.86 34.4748 24.2709 34.0681 25.6316C33.7243 26.7814 34.937 27.4759 35.8605 27.2384C35.8749 27.4016 36.1226 27.4642 36.2309 27.3151C35.4209 28.4261 38.1554 31.5366 38.841 32.5327C40.4407 34.8567 42.0806 37.2586 43.8348 39.4791C43.8125 40.3508 45.1703 41.1225 45.888 40.3155C47.4675 38.538 49.1023 37.1889 51.213 36.3359C50.3693 39.2276 48.0652 42.0005 46.2453 44.1961Z" fill="#00B2A0"/>
</g>
<defs>
<filter id="filter0_d_49_85" x="0" y="3" width="190.269" height="58" filterUnits="userSpaceOnUse" color-interpolation-filters="sRGB">
<feFlood flood-opacity="0" result="BackgroundImageFix"/>
<feColorMatrix in="SourceAlpha" type="matrix" values="0 0 0 0 0 0 0 0 0 0 0 0 0 0 0 0 0 0 127 0" result="hardAlpha"/>
<feOffset dy="4"/>
<feGaussianBlur stdDeviation="2"/>
<feComposite in2="hardAlpha" operator="out"/>
<feColorMatrix type="matrix" values="0 0 0 0 0 0 0 0 0 0 0 0 0 0 0 0 0 0 0.25 0"/>
<feBlend mode="normal" in2="BackgroundImageFix" result="effect1_dropShadow_49_85"/>
<feBlend mode="normal" in="SourceGraphic" in2="effect1_dropShadow_49_85" result="shape"/>
</filter>
</defs>
</svg>
