<svg width="224" height="58" viewBox="0 0 224 58" fill="none" xmlns="http://www.w3.org/2000/svg">
<g filter="url(#filter0_d_49_56)">
<path d="M81.9258 35H79.7695V19.7891H73.0898V35H70.9453V17.9375H81.9258V35ZM88.4906 28.3203V35H86.3461V17.9375H91.7836C93.3695 17.9375 94.6156 18.4141 95.5219 19.3672C96.4281 20.3125 96.8813 21.5742 96.8813 23.1523C96.8813 24.793 96.4477 26.0586 95.5805 26.9492C94.7211 27.832 93.5063 28.2891 91.9359 28.3203H88.4906ZM88.4906 26.4805H91.7836C92.7367 26.4805 93.4672 26.1953 93.975 25.625C94.4828 25.0547 94.7367 24.2383 94.7367 23.1758C94.7367 22.1523 94.475 21.332 93.9516 20.7148C93.4281 20.0977 92.7094 19.7891 91.7953 19.7891H88.4906V26.4805ZM111.356 27.9688C111.356 30.2969 110.86 32.0898 109.868 33.3477C108.876 34.6055 107.466 35.2344 105.638 35.2344C103.88 35.2344 102.489 34.625 101.466 33.4062C100.45 32.1797 99.9227 30.4492 99.8836 28.2148V25.0039C99.8836 22.7227 100.388 20.9375 101.395 19.6484C102.403 18.3516 103.809 17.7031 105.614 17.7031C107.411 17.7031 108.809 18.3242 109.809 19.5664C110.817 20.8008 111.333 22.5664 111.356 24.8633V27.9688ZM109.212 24.9805C109.212 23.1758 108.915 21.8359 108.321 20.9609C107.735 20.0781 106.833 19.6367 105.614 19.6367C104.434 19.6367 103.54 20.082 102.93 20.9727C102.329 21.8633 102.024 23.1758 102.016 24.9102V27.9688C102.016 29.7109 102.317 31.0391 102.919 31.9531C103.528 32.8672 104.434 33.3242 105.638 33.3242C106.841 33.3242 107.731 32.9023 108.309 32.0586C108.888 31.2148 109.188 29.9219 109.212 28.1797V24.9805ZM125.362 27.2188H123.874V35H121.718V27.2188H120.136L116.362 35H113.691L118.413 25.9414L114.066 17.9375H116.597L120.136 25.3438H121.718V17.9375H123.874V25.3438H125.374L128.913 17.9375H131.433L127.097 25.9297L131.808 35H129.148L125.362 27.2188ZM143.494 17.9375H145.638V35H143.494V21.8516L136.849 35H134.693V17.9375H136.849V31.0859L143.494 17.9375ZM150.059 35V17.9375H154.922C156.477 17.9375 157.645 18.3164 158.426 19.0742C159.215 19.832 159.609 20.9688 159.609 22.4844C159.609 23.2812 159.41 23.9844 159.012 24.5938C158.613 25.2031 158.074 25.6758 157.395 26.0117C158.176 26.2461 158.793 26.7266 159.246 27.4531C159.707 28.1797 159.938 29.0547 159.938 30.0781C159.938 31.6094 159.516 32.8125 158.672 33.6875C157.836 34.5625 156.641 35 155.086 35H150.059ZM152.203 27.0195V33.1602H155.133C155.945 33.1602 156.59 32.8945 157.066 32.3633C157.543 31.8242 157.781 31.0703 157.781 30.1016C157.781 28.0469 156.914 27.0195 155.18 27.0195H152.203ZM152.203 25.2148H154.957C155.699 25.2148 156.297 24.9648 156.75 24.4648C157.211 23.9648 157.441 23.3008 157.441 22.4727C157.441 21.5352 157.234 20.8555 156.82 20.4336C156.406 20.0039 155.773 19.7891 154.922 19.7891H152.203V25.2148ZM171.717 30.5469H165.952L164.627 35H162.424L167.92 17.9375H169.76L175.268 35H173.065L171.717 30.5469ZM166.514 28.6953H171.166L168.834 20.9375L166.514 28.6953ZM189.356 35H187.2V27.1133H180.333V35H178.188V17.9375H180.333V25.2734H187.2V17.9375H189.356V35ZM202.566 17.9375H204.71V35H202.566V21.8516L195.921 35H193.765V17.9375H195.921V31.0859L202.566 17.9375ZM217.31 27.1133H211.275V33.1602H218.306V35H209.13V17.9375H218.189V19.7891H211.275V25.2734H217.31V27.1133Z" fill="#242121"/>
<path d="M58.3614 35.7739C56.2234 35.3821 54.6115 36.7861 52.5929 34.694C52.0654 34.1477 51.3035 34.4557 51.0617 35.121C49.3292 39.8962 45.7252 37.5892 44.0738 34.2445C43.7539 33.5971 42.8481 33.6532 42.515 34.2445C41.3736 37.1933 39.1757 37.5565 35.9209 35.334C35.4039 34.8565 34.5559 35.0171 34.3614 35.7687C32.9445 41.2505 27.9927 39.7445 26.4671 35.24C26.3904 35.0131 26.2251 34.903 26.0535 34.8833C25.7064 34.4245 24.9203 34.287 24.6494 34.9305C22.6979 39.5629 19.0758 38.8538 16.8213 34.9366C16.4144 34.2297 15.5742 34.4748 15.3074 35.1456C13.4114 39.9113 7.88688 39.8018 7.98525 34.0731C7.99606 33.4386 7.09666 33.3141 6.94457 33.9245C5.16504 41.064 13.4371 42.3021 16.3026 37.0614C19.2623 40.6157 23.7006 41.3451 25.8173 36.5616C27.6231 41.8079 33.5222 42.8398 35.7148 37.6197C38.4991 39.5842 41.1514 39.2756 43.2439 36.4846C45.7958 40.3324 50.343 41.7499 52.3617 37.0019C54.2142 38.3257 55.4431 37.3996 58.1235 37.6265C59.1239 37.7116 59.3525 35.9558 58.3614 35.7739Z" fill="#00B2A0"/>
<path d="M55.0118 43.4668C54.1731 44.922 53.8832 46.226 52.0868 46.9373C49.8755 47.8135 47.6744 45.7229 46.5847 44.0088C46.2087 43.4172 45.2968 43.3034 44.9456 44.0088C43.4063 47.1007 39.9973 46.3457 38.5427 43.3617C38.1851 42.6276 36.9757 42.7586 36.8271 43.5984C36.0097 48.2241 32.3397 48.7137 29.8818 45.361C30.1501 44.4583 28.7506 43.8438 28.3691 44.7274C26.3058 49.5069 22.2776 48.9729 19.9397 44.7077C19.5339 43.9675 18.6249 44.2271 18.3627 44.9253C16.4626 49.9888 13.5032 47.5801 11.8425 44.0948C11.519 43.4156 10.5966 43.6508 10.4016 44.2936C9.49399 47.2872 7.99879 47.8461 5.47984 48.6206C5.00547 48.7667 5.07874 49.6361 5.6004 49.5627C8.48659 49.1564 10.0629 48.6141 11.2426 46.3441C13.6661 50.3409 17.0494 51.1572 19.3196 46.9518C22.2633 50.8434 26.9921 51.287 29.335 46.657C31.9375 50.3957 36.3019 50.2117 38.0496 46.1376C40.3044 48.9464 43.5861 49.3411 45.8567 46.1977C49.2356 49.7856 56.1462 50.5887 56.3926 43.8626C56.4232 43.0605 55.3828 42.8228 55.0118 43.4668Z" fill="#00B2A0"/>
<path d="M19.5216 7.50507C18.9559 7.67895 18.7328 8.12751 18.7501 8.5804C14.7415 9.20593 12.1463 13.383 11.8366 17.5845C11.413 23.3329 16.0364 26.7097 21.0492 26.2809C26.1747 25.8428 29.509 21.0025 29.3583 15.8007C29.2077 10.605 24.5473 5.95773 19.5216 7.50507ZM20.3562 23.653C16.6772 23.9717 14.2972 21.3478 14.3675 17.5845C14.4414 13.6401 17.303 11.0391 20.6204 9.99918C20.6811 9.98006 20.7249 9.94738 20.7742 9.9184C24.0081 10.4511 26.4538 11.7506 26.7973 15.8001C27.1541 20.0006 24.2337 23.3163 20.3562 23.653Z" fill="#00B2A0"/>
<path d="M14.8569 7.33132C14.2535 6.63796 13.585 6.02877 12.9004 5.4276C12.2217 4.83135 11.5019 3.67771 10.545 3.77205C10.0382 3.822 9.69489 4.16143 9.65957 4.70711C9.59242 5.74267 10.5593 6.25136 11.2625 6.77947C12.0664 7.3828 12.9016 7.92263 13.6477 8.60859C14.4756 9.37008 15.6085 8.19485 14.8569 7.33132Z" fill="#00B2A0"/>
<path d="M9.30955 10.4497C9.63124 10.4907 9.34692 10.4414 9.26197 10.4134C9.13148 10.3699 9.00362 10.3178 8.87605 10.266C8.73155 10.2077 8.58852 10.1448 8.44577 10.0819C8.43613 10.0776 8.43088 10.0755 8.41658 10.0687C8.28054 9.79276 8.04672 9.57048 7.74575 9.4709C7.20833 9.29239 6.39096 8.86602 5.81005 9.05871C5.48164 9.16784 5.13747 9.45486 5.07354 9.83653C5.07354 9.83653 5.07325 9.83808 5.07325 9.83869C5.01253 10.2003 5.0388 10.6708 5.34444 10.9223C5.51463 11.0617 5.71371 11.1604 5.92127 11.2454C5.75312 11.2448 5.88886 11.2532 6.04095 11.2905C6.14867 11.3296 6.25493 11.3697 6.36586 11.4008C6.63325 11.4958 6.90036 11.5923 7.16629 11.6906C7.31897 11.7477 7.47631 11.7526 7.6284 11.7236C8.17516 11.8771 8.77388 12.051 9.30984 12.0165C10.2843 11.9536 10.2425 10.569 9.30955 10.4497Z" fill="#00B2A0"/>
<path d="M7.63998 19.2588C7.23071 19.6211 6.75313 19.905 6.28782 20.1772C6.04728 20.3181 5.79856 20.4639 5.5408 20.5666C5.38638 20.628 5.14058 20.5765 5.48037 20.6421C5.31164 20.6098 5.15167 20.6064 4.98382 20.5873C3.5689 20.426 3.69763 23.1242 5.25735 22.7222C5.83184 22.5742 6.41889 21.9952 6.90726 21.6244C7.47388 21.1943 8.03961 20.7241 8.50668 20.1741C9.0406 19.5458 8.24162 18.7258 7.63998 19.2588Z" fill="#00B2A0"/>
<path d="M11.2453 24.6062C10.7659 25.3831 10.3289 26.1883 9.87296 26.9804C9.37875 27.8383 8.54153 28.4781 8.43177 29.5047C8.36171 30.1601 9.04129 30.4847 9.5431 30.3987C10.5692 30.223 11.0698 28.8437 11.4449 27.9503C11.832 27.0285 12.0699 26.0616 12.3799 25.1109C12.6182 24.3787 11.614 24.0081 11.2453 24.6062Z" fill="#00B2A0"/>
<path d="M20.9431 27.3986C20.8421 26.8502 20.0391 26.8764 19.9214 27.3986C19.6126 28.7715 19.2509 30.1326 18.9476 31.5067C18.8743 31.8384 18.9374 32.2222 19.1864 32.4609C19.1455 32.4032 19.1502 32.4146 19.2001 32.4945C19.497 33.0068 20.1208 32.9483 20.4285 32.4945C20.1474 32.9088 20.6276 32.2938 20.6448 32.2623C20.7581 32.0579 20.7677 31.8433 20.7797 31.614C20.8048 31.1392 20.8576 30.6656 20.9005 30.1924C20.9849 29.2697 21.1124 28.3171 20.9431 27.3986Z" fill="#00B2A0"/>
<path d="M31.6073 28.2096C30.8732 27.0973 29.7073 26.3833 29.0399 25.2346C28.5831 24.4478 27.5368 25.1332 27.8898 25.9446C28.1957 26.6478 28.6631 27.2317 29.1456 27.8073C29.3759 28.082 29.6118 28.3502 29.8144 28.6487C30.0908 29.0559 30.2044 29.5134 30.7433 29.5927C31.0533 29.6383 31.4071 29.5735 31.5636 29.2397C31.5782 29.2088 31.5927 29.178 31.6071 29.1469C31.7407 28.8626 31.7921 28.4899 31.6073 28.2096Z" fill="#00B2A0"/>
<path d="M35.8792 19.9104C34.6435 19.9792 33.4075 20.0452 32.1718 20.1102C31.0599 20.1688 31.0599 21.8737 32.1718 21.9325C33.4078 21.9979 34.6435 22.0639 35.8792 22.132C37.236 22.2075 37.236 19.8355 35.8792 19.9104Z" fill="#00B2A0"/>
<path d="M35.8797 7.09895C34.7587 7.07429 33.8526 8.49614 33.1809 9.32207C32.459 10.2093 31.8247 11.1709 31.0887 12.0465C30.5265 12.7155 31.3932 13.6419 32.02 13.0299C32.762 12.3048 33.4358 11.5079 34.148 10.751C34.5503 10.3237 34.9666 9.89334 35.4231 9.53047C35.9845 9.08499 36.4256 8.9404 36.6752 8.20141C36.8605 7.65296 36.3835 7.11005 35.8797 7.09895Z" fill="#00B2A0"/>
<path d="M30.4932 1.2963C29.8297 1.74579 29.3871 2.47583 28.9312 3.14329C28.3996 3.92143 27.8943 4.70327 27.2795 5.41296C26.5833 6.21669 27.6663 7.3731 28.4139 6.611C28.9942 6.01907 29.508 5.37381 30.0115 4.70912C30.5522 3.99573 31.2493 3.34245 31.6942 2.56431C32.1408 1.78371 31.2417 0.789458 30.4932 1.2963Z" fill="#00B2A0"/>
<path d="M22.2032 0.226597C21.8797 -0.0755323 21.4565 -0.0755323 21.133 0.226597C20.4981 0.819757 20.7909 1.85532 20.8437 2.64486C20.9045 3.55064 20.9696 4.45548 21.0475 5.36002C21.1202 6.20352 22.216 6.20352 22.2887 5.36002C22.3667 4.45517 22.4318 3.55094 22.4925 2.64486C22.5453 1.85563 22.8381 0.819449 22.2032 0.226597Z" fill="#00B2A0"/>
</g>
<defs>
<filter id="filter0_d_49_56" x="0" y="0" width="222.307" height="58.0002" filterUnits="userSpaceOnUse" color-interpolation-filters="sRGB">
<feFlood flood-opacity="0" result="BackgroundImageFix"/>
<feColorMatrix in="SourceAlpha" type="matrix" values="0 0 0 0 0 0 0 0 0 0 0 0 0 0 0 0 0 0 127 0" result="hardAlpha"/>
<feOffset dy="4"/>
<feGaussianBlur stdDeviation="2"/>
<feComposite in2="hardAlpha" operator="out"/>
<feColorMatrix type="matrix" values="0 0 0 0 0 0 0 0 0 0 0 0 0 0 0 0 0 0 0.25 0"/>
<feBlend mode="normal" in2="BackgroundImageFix" result="effect1_dropShadow_49_56"/>
<feBlend mode="normal" in="SourceGraphic" in2="effect1_dropShadow_49_56" result="shape"/>
</filter>
</defs>
</svg>
